G04*
G04 #@! TF.GenerationSoftware,Altium Limited,Altium Designer,20.0.7 (75)*
G04*
G04 Layer_Color=255*
%FSLAX25Y25*%
%MOIN*%
G70*
G01*
G75*
%ADD20C,0.01000*%
G04:AMPARAMS|DCode=24|XSize=59.06mil|YSize=51.18mil|CornerRadius=1.28mil|HoleSize=0mil|Usage=FLASHONLY|Rotation=180.000|XOffset=0mil|YOffset=0mil|HoleType=Round|Shape=RoundedRectangle|*
%AMROUNDEDRECTD24*
21,1,0.05906,0.04862,0,0,180.0*
21,1,0.05650,0.05118,0,0,180.0*
1,1,0.00256,-0.02825,0.02431*
1,1,0.00256,0.02825,0.02431*
1,1,0.00256,0.02825,-0.02431*
1,1,0.00256,-0.02825,-0.02431*
%
%ADD24ROUNDEDRECTD24*%
%ADD25R,0.02362X0.03740*%
G04:AMPARAMS|DCode=26|XSize=59.06mil|YSize=51.18mil|CornerRadius=1.28mil|HoleSize=0mil|Usage=FLASHONLY|Rotation=270.000|XOffset=0mil|YOffset=0mil|HoleType=Round|Shape=RoundedRectangle|*
%AMROUNDEDRECTD26*
21,1,0.05906,0.04862,0,0,270.0*
21,1,0.05650,0.05118,0,0,270.0*
1,1,0.00256,-0.02431,-0.02825*
1,1,0.00256,-0.02431,0.02825*
1,1,0.00256,0.02431,0.02825*
1,1,0.00256,0.02431,-0.02825*
%
%ADD26ROUNDEDRECTD26*%
%ADD27R,0.05118X0.04528*%
%ADD28R,0.06299X0.12598*%
%ADD29R,0.04528X0.05118*%
%ADD30R,0.03543X0.07874*%
%ADD32R,0.07874X0.03543*%
G04:AMPARAMS|DCode=33|XSize=110.24mil|YSize=94.49mil|CornerRadius=2.36mil|HoleSize=0mil|Usage=FLASHONLY|Rotation=0.000|XOffset=0mil|YOffset=0mil|HoleType=Round|Shape=RoundedRectangle|*
%AMROUNDEDRECTD33*
21,1,0.11024,0.08976,0,0,0.0*
21,1,0.10551,0.09449,0,0,0.0*
1,1,0.00472,0.05276,-0.04488*
1,1,0.00472,-0.05276,-0.04488*
1,1,0.00472,-0.05276,0.04488*
1,1,0.00472,0.05276,0.04488*
%
%ADD33ROUNDEDRECTD33*%
G04:AMPARAMS|DCode=34|XSize=36.61mil|YSize=51.58mil|CornerRadius=2.75mil|HoleSize=0mil|Usage=FLASHONLY|Rotation=270.000|XOffset=0mil|YOffset=0mil|HoleType=Round|Shape=RoundedRectangle|*
%AMROUNDEDRECTD34*
21,1,0.03661,0.04608,0,0,270.0*
21,1,0.03112,0.05158,0,0,270.0*
1,1,0.00549,-0.02304,-0.01556*
1,1,0.00549,-0.02304,0.01556*
1,1,0.00549,0.02304,0.01556*
1,1,0.00549,0.02304,-0.01556*
%
%ADD34ROUNDEDRECTD34*%
G04:AMPARAMS|DCode=35|XSize=127.56mil|YSize=51.58mil|CornerRadius=3.87mil|HoleSize=0mil|Usage=FLASHONLY|Rotation=270.000|XOffset=0mil|YOffset=0mil|HoleType=Round|Shape=RoundedRectangle|*
%AMROUNDEDRECTD35*
21,1,0.12756,0.04384,0,0,270.0*
21,1,0.11982,0.05158,0,0,270.0*
1,1,0.00774,-0.02192,-0.05991*
1,1,0.00774,-0.02192,0.05991*
1,1,0.00774,0.02192,0.05991*
1,1,0.00774,0.02192,-0.05991*
%
%ADD35ROUNDEDRECTD35*%
G04:AMPARAMS|DCode=36|XSize=110.24mil|YSize=94.49mil|CornerRadius=2.36mil|HoleSize=0mil|Usage=FLASHONLY|Rotation=270.000|XOffset=0mil|YOffset=0mil|HoleType=Round|Shape=RoundedRectangle|*
%AMROUNDEDRECTD36*
21,1,0.11024,0.08976,0,0,270.0*
21,1,0.10551,0.09449,0,0,270.0*
1,1,0.00472,-0.04488,-0.05276*
1,1,0.00472,-0.04488,0.05276*
1,1,0.00472,0.04488,0.05276*
1,1,0.00472,0.04488,-0.05276*
%
%ADD36ROUNDEDRECTD36*%
G04:AMPARAMS|DCode=37|XSize=61.02mil|YSize=23.62mil|CornerRadius=0.59mil|HoleSize=0mil|Usage=FLASHONLY|Rotation=90.000|XOffset=0mil|YOffset=0mil|HoleType=Round|Shape=RoundedRectangle|*
%AMROUNDEDRECTD37*
21,1,0.06102,0.02244,0,0,90.0*
21,1,0.05984,0.02362,0,0,90.0*
1,1,0.00118,0.01122,0.02992*
1,1,0.00118,0.01122,-0.02992*
1,1,0.00118,-0.01122,-0.02992*
1,1,0.00118,-0.01122,0.02992*
%
%ADD37ROUNDEDRECTD37*%
%ADD38R,0.12598X0.06299*%
%ADD39R,0.09843X0.12992*%
%ADD40R,0.04724X0.01260*%
%ADD41R,0.01260X0.04724*%
%ADD42R,0.05669X0.08228*%
G04:AMPARAMS|DCode=43|XSize=35.43mil|YSize=43.31mil|CornerRadius=0.89mil|HoleSize=0mil|Usage=FLASHONLY|Rotation=0.000|XOffset=0mil|YOffset=0mil|HoleType=Round|Shape=RoundedRectangle|*
%AMROUNDEDRECTD43*
21,1,0.03543,0.04153,0,0,0.0*
21,1,0.03366,0.04331,0,0,0.0*
1,1,0.00177,0.01683,-0.02077*
1,1,0.00177,-0.01683,-0.02077*
1,1,0.00177,-0.01683,0.02077*
1,1,0.00177,0.01683,0.02077*
%
%ADD43ROUNDEDRECTD43*%
G04:AMPARAMS|DCode=44|XSize=35.43mil|YSize=43.31mil|CornerRadius=0.89mil|HoleSize=0mil|Usage=FLASHONLY|Rotation=90.000|XOffset=0mil|YOffset=0mil|HoleType=Round|Shape=RoundedRectangle|*
%AMROUNDEDRECTD44*
21,1,0.03543,0.04153,0,0,90.0*
21,1,0.03366,0.04331,0,0,90.0*
1,1,0.00177,0.02077,0.01683*
1,1,0.00177,0.02077,-0.01683*
1,1,0.00177,-0.02077,-0.01683*
1,1,0.00177,-0.02077,0.01683*
%
%ADD44ROUNDEDRECTD44*%
%ADD45R,0.02200X0.06500*%
%ADD46R,0.06299X0.05512*%
G04:AMPARAMS|DCode=47|XSize=44.09mil|YSize=23.62mil|CornerRadius=2.95mil|HoleSize=0mil|Usage=FLASHONLY|Rotation=90.000|XOffset=0mil|YOffset=0mil|HoleType=Round|Shape=RoundedRectangle|*
%AMROUNDEDRECTD47*
21,1,0.04409,0.01772,0,0,90.0*
21,1,0.03819,0.02362,0,0,90.0*
1,1,0.00591,0.00886,0.01909*
1,1,0.00591,0.00886,-0.01909*
1,1,0.00591,-0.00886,-0.01909*
1,1,0.00591,-0.00886,0.01909*
%
%ADD47ROUNDEDRECTD47*%
%ADD48R,0.04331X0.01181*%
%ADD49R,0.12205X0.09055*%
%ADD50R,0.13386X0.09449*%
G04:AMPARAMS|DCode=51|XSize=77.56mil|YSize=23.62mil|CornerRadius=2.95mil|HoleSize=0mil|Usage=FLASHONLY|Rotation=90.000|XOffset=0mil|YOffset=0mil|HoleType=Round|Shape=RoundedRectangle|*
%AMROUNDEDRECTD51*
21,1,0.07756,0.01772,0,0,90.0*
21,1,0.07165,0.02362,0,0,90.0*
1,1,0.00591,0.00886,0.03583*
1,1,0.00591,0.00886,-0.03583*
1,1,0.00591,-0.00886,-0.03583*
1,1,0.00591,-0.00886,0.03583*
%
%ADD51ROUNDEDRECTD51*%
G04:AMPARAMS|DCode=52|XSize=31.89mil|YSize=10.63mil|CornerRadius=1.33mil|HoleSize=0mil|Usage=FLASHONLY|Rotation=0.000|XOffset=0mil|YOffset=0mil|HoleType=Round|Shape=RoundedRectangle|*
%AMROUNDEDRECTD52*
21,1,0.03189,0.00797,0,0,0.0*
21,1,0.02923,0.01063,0,0,0.0*
1,1,0.00266,0.01462,-0.00399*
1,1,0.00266,-0.01462,-0.00399*
1,1,0.00266,-0.01462,0.00399*
1,1,0.00266,0.01462,0.00399*
%
%ADD52ROUNDEDRECTD52*%
G04:AMPARAMS|DCode=53|XSize=144.49mil|YSize=31.1mil|CornerRadius=3.89mil|HoleSize=0mil|Usage=FLASHONLY|Rotation=180.000|XOffset=0mil|YOffset=0mil|HoleType=Round|Shape=RoundedRectangle|*
%AMROUNDEDRECTD53*
21,1,0.14449,0.02333,0,0,180.0*
21,1,0.13671,0.03110,0,0,180.0*
1,1,0.00778,-0.06836,0.01166*
1,1,0.00778,0.06836,0.01166*
1,1,0.00778,0.06836,-0.01166*
1,1,0.00778,-0.06836,-0.01166*
%
%ADD53ROUNDEDRECTD53*%
G04:AMPARAMS|DCode=54|XSize=90.16mil|YSize=83.46mil|CornerRadius=10.43mil|HoleSize=0mil|Usage=FLASHONLY|Rotation=180.000|XOffset=0mil|YOffset=0mil|HoleType=Round|Shape=RoundedRectangle|*
%AMROUNDEDRECTD54*
21,1,0.09016,0.06260,0,0,180.0*
21,1,0.06929,0.08346,0,0,180.0*
1,1,0.02087,-0.03465,0.03130*
1,1,0.02087,0.03465,0.03130*
1,1,0.02087,0.03465,-0.03130*
1,1,0.02087,-0.03465,-0.03130*
%
%ADD54ROUNDEDRECTD54*%
%ADD55R,0.07677X0.02559*%
G04:AMPARAMS|DCode=56|XSize=38.98mil|YSize=19.68mil|CornerRadius=2.46mil|HoleSize=0mil|Usage=FLASHONLY|Rotation=270.000|XOffset=0mil|YOffset=0mil|HoleType=Round|Shape=RoundedRectangle|*
%AMROUNDEDRECTD56*
21,1,0.03898,0.01476,0,0,270.0*
21,1,0.03406,0.01968,0,0,270.0*
1,1,0.00492,-0.00738,-0.01703*
1,1,0.00492,-0.00738,0.01703*
1,1,0.00492,0.00738,0.01703*
1,1,0.00492,0.00738,-0.01703*
%
%ADD56ROUNDEDRECTD56*%
G04:AMPARAMS|DCode=58|XSize=77.56mil|YSize=23.62mil|CornerRadius=2.95mil|HoleSize=0mil|Usage=FLASHONLY|Rotation=180.000|XOffset=0mil|YOffset=0mil|HoleType=Round|Shape=RoundedRectangle|*
%AMROUNDEDRECTD58*
21,1,0.07756,0.01772,0,0,180.0*
21,1,0.07165,0.02362,0,0,180.0*
1,1,0.00591,-0.03583,0.00886*
1,1,0.00591,0.03583,0.00886*
1,1,0.00591,0.03583,-0.00886*
1,1,0.00591,-0.03583,-0.00886*
%
%ADD58ROUNDEDRECTD58*%
%ADD59R,0.01181X0.03937*%
G04:AMPARAMS|DCode=60|XSize=10.63mil|YSize=31.89mil|CornerRadius=1.33mil|HoleSize=0mil|Usage=FLASHONLY|Rotation=0.000|XOffset=0mil|YOffset=0mil|HoleType=Round|Shape=RoundedRectangle|*
%AMROUNDEDRECTD60*
21,1,0.01063,0.02923,0,0,0.0*
21,1,0.00797,0.03189,0,0,0.0*
1,1,0.00266,0.00399,-0.01462*
1,1,0.00266,-0.00399,-0.01462*
1,1,0.00266,-0.00399,0.01462*
1,1,0.00266,0.00399,0.01462*
%
%ADD60ROUNDEDRECTD60*%
%ADD61R,0.08465X0.11024*%
%ADD62R,0.07874X0.05118*%
%ADD63R,0.13583X0.03937*%
%ADD64R,0.08228X0.05669*%
G04:AMPARAMS|DCode=136|XSize=251.97mil|YSize=244.1mil|CornerRadius=6.1mil|HoleSize=0mil|Usage=FLASHONLY|Rotation=270.000|XOffset=0mil|YOffset=0mil|HoleType=Round|Shape=RoundedRectangle|*
%AMROUNDEDRECTD136*
21,1,0.25197,0.23189,0,0,270.0*
21,1,0.23976,0.24410,0,0,270.0*
1,1,0.01221,-0.11595,-0.11988*
1,1,0.01221,-0.11595,0.11988*
1,1,0.01221,0.11595,0.11988*
1,1,0.01221,0.11595,-0.11988*
%
%ADD136ROUNDEDRECTD136*%
G04:AMPARAMS|DCode=137|XSize=49.21mil|YSize=118.11mil|CornerRadius=1.23mil|HoleSize=0mil|Usage=FLASHONLY|Rotation=270.000|XOffset=0mil|YOffset=0mil|HoleType=Round|Shape=RoundedRectangle|*
%AMROUNDEDRECTD137*
21,1,0.04921,0.11565,0,0,270.0*
21,1,0.04675,0.11811,0,0,270.0*
1,1,0.00246,-0.05783,-0.02338*
1,1,0.00246,-0.05783,0.02338*
1,1,0.00246,0.05783,0.02338*
1,1,0.00246,0.05783,-0.02338*
%
%ADD137ROUNDEDRECTD137*%
%ADD138R,0.19685X0.19685*%
%ADD139R,0.19291X0.11614*%
G04:AMPARAMS|DCode=140|XSize=49.21mil|YSize=118.11mil|CornerRadius=1.23mil|HoleSize=0mil|Usage=FLASHONLY|Rotation=0.000|XOffset=0mil|YOffset=0mil|HoleType=Round|Shape=RoundedRectangle|*
%AMROUNDEDRECTD140*
21,1,0.04921,0.11565,0,0,0.0*
21,1,0.04675,0.11811,0,0,0.0*
1,1,0.00246,0.02338,-0.05783*
1,1,0.00246,-0.02338,-0.05783*
1,1,0.00246,-0.02338,0.05783*
1,1,0.00246,0.02338,0.05783*
%
%ADD140ROUNDEDRECTD140*%
%ADD141R,0.14567X0.14567*%
G04:AMPARAMS|DCode=142|XSize=62.99mil|YSize=177.17mil|CornerRadius=1.58mil|HoleSize=0mil|Usage=FLASHONLY|Rotation=90.000|XOffset=0mil|YOffset=0mil|HoleType=Round|Shape=RoundedRectangle|*
%AMROUNDEDRECTD142*
21,1,0.06299,0.17402,0,0,90.0*
21,1,0.05984,0.17717,0,0,90.0*
1,1,0.00315,0.08701,0.02992*
1,1,0.00315,0.08701,-0.02992*
1,1,0.00315,-0.08701,-0.02992*
1,1,0.00315,-0.08701,0.02992*
%
%ADD142ROUNDEDRECTD142*%
%ADD143R,0.38780X0.41339*%
%ADD144C,0.03937*%
G04:AMPARAMS|DCode=145|XSize=425.2mil|YSize=370.08mil|CornerRadius=9.25mil|HoleSize=0mil|Usage=FLASHONLY|Rotation=90.000|XOffset=0mil|YOffset=0mil|HoleType=Round|Shape=RoundedRectangle|*
%AMROUNDEDRECTD145*
21,1,0.42520,0.35158,0,0,90.0*
21,1,0.40669,0.37008,0,0,90.0*
1,1,0.01850,0.17579,0.20335*
1,1,0.01850,0.17579,-0.20335*
1,1,0.01850,-0.17579,-0.20335*
1,1,0.01850,-0.17579,0.20335*
%
%ADD145ROUNDEDRECTD145*%
G04:AMPARAMS|DCode=146|XSize=251.97mil|YSize=244.1mil|CornerRadius=6.1mil|HoleSize=0mil|Usage=FLASHONLY|Rotation=0.000|XOffset=0mil|YOffset=0mil|HoleType=Round|Shape=RoundedRectangle|*
%AMROUNDEDRECTD146*
21,1,0.25197,0.23189,0,0,0.0*
21,1,0.23976,0.24410,0,0,0.0*
1,1,0.01221,0.11988,-0.11595*
1,1,0.01221,-0.11988,-0.11595*
1,1,0.01221,-0.11988,0.11595*
1,1,0.01221,0.11988,0.11595*
%
%ADD146ROUNDEDRECTD146*%
%ADD147R,0.31654X0.40827*%
%ADD158C,0.08858*%
%ADD159R,0.05937X0.05937*%
%ADD160C,0.05937*%
%ADD161R,0.10039X0.10039*%
%ADD162C,0.10039*%
%ADD163R,0.10039X0.10039*%
%ADD164R,0.05937X0.05937*%
%ADD165C,0.09055*%
%ADD166C,0.27559*%
%ADD167R,0.07874X0.07874*%
%ADD168C,0.07874*%
%ADD169R,0.07874X0.07874*%
%ADD170C,0.13055*%
%ADD171C,0.05543*%
%ADD172C,0.05622*%
%ADD173R,0.05622X0.05622*%
%ADD174R,0.05543X0.05543*%
%ADD175C,0.04252*%
D20*
X-3000Y-4000D02*
X0D01*
X-3000Y773000D02*
X-3000Y-4000D01*
X-3000Y773000D02*
X752000D01*
Y-4000D02*
Y773000D01*
X0Y-4000D02*
X752000D01*
D24*
X566500Y494776D02*
D03*
Y504224D02*
D03*
X494656Y733700D02*
D03*
Y724251D02*
D03*
X243021Y41668D02*
D03*
Y51117D02*
D03*
X518000Y135224D02*
D03*
Y125776D02*
D03*
X500917Y169474D02*
D03*
Y160026D02*
D03*
X490250Y169474D02*
D03*
Y160026D02*
D03*
X522250Y169474D02*
D03*
Y160026D02*
D03*
X518500Y195224D02*
D03*
Y185776D02*
D03*
X506466Y195415D02*
D03*
Y185967D02*
D03*
X485317Y195455D02*
D03*
Y186006D02*
D03*
X474797Y195455D02*
D03*
Y186006D02*
D03*
X495837Y195455D02*
D03*
Y186006D02*
D03*
X488250Y125801D02*
D03*
Y135250D02*
D03*
X507250D02*
D03*
Y125801D02*
D03*
X497750Y135250D02*
D03*
Y125801D02*
D03*
X511583Y160026D02*
D03*
Y169474D02*
D03*
X469250Y135250D02*
D03*
Y125801D02*
D03*
X478750Y135250D02*
D03*
Y125801D02*
D03*
X444250Y146974D02*
D03*
Y137526D02*
D03*
X455750Y158474D02*
D03*
Y149026D02*
D03*
X682300Y133700D02*
D03*
Y143149D02*
D03*
X646100Y143649D02*
D03*
Y134200D02*
D03*
X619700D02*
D03*
Y143649D02*
D03*
X709800Y143149D02*
D03*
Y133700D02*
D03*
X644613Y512396D02*
D03*
Y502947D02*
D03*
X644872Y561211D02*
D03*
Y551762D02*
D03*
X643898Y537096D02*
D03*
Y527647D02*
D03*
X633617Y502947D02*
D03*
Y512396D02*
D03*
X622620Y502947D02*
D03*
Y512396D02*
D03*
X611772Y418211D02*
D03*
Y408762D02*
D03*
X639766Y356087D02*
D03*
Y346638D02*
D03*
X650165Y356087D02*
D03*
Y346638D02*
D03*
X629366D02*
D03*
Y356087D02*
D03*
X633150Y537096D02*
D03*
Y527647D02*
D03*
X607213Y537096D02*
D03*
Y527647D02*
D03*
X701000Y594724D02*
D03*
Y585276D02*
D03*
X673213Y479096D02*
D03*
Y469647D02*
D03*
X719000Y588224D02*
D03*
Y578776D02*
D03*
X662500Y358724D02*
D03*
Y349276D02*
D03*
X690500Y358500D02*
D03*
Y349051D02*
D03*
X671500Y358724D02*
D03*
Y349276D02*
D03*
X681000D02*
D03*
Y358724D02*
D03*
X309000Y293276D02*
D03*
Y302724D02*
D03*
X281345Y51000D02*
D03*
X315175Y278774D02*
D03*
X326833Y303274D02*
D03*
X340675D02*
D03*
X359675Y312326D02*
D03*
X388175Y258774D02*
D03*
X219731Y597551D02*
D03*
X235239Y728818D02*
D03*
X301211Y605918D02*
D03*
X374675Y387326D02*
D03*
X453500Y326224D02*
D03*
X456675Y285274D02*
D03*
X535074Y576518D02*
D03*
X549394Y724551D02*
D03*
X601236Y730224D02*
D03*
X611586Y739673D02*
D03*
X621937D02*
D03*
X663513Y625772D02*
D03*
X632287Y730224D02*
D03*
X642637D02*
D03*
X652987D02*
D03*
X675000Y730276D02*
D03*
X137227Y109922D02*
D03*
X138227Y165922D02*
D03*
X148227Y156422D02*
D03*
X222332Y51117D02*
D03*
X260655Y51000D02*
D03*
X105439Y329601D02*
D03*
X104439Y377801D02*
D03*
X138727Y229422D02*
D03*
X148227Y222422D02*
D03*
X243500Y248224D02*
D03*
X138727Y288422D02*
D03*
X148227Y283422D02*
D03*
X234000Y248224D02*
D03*
X252500D02*
D03*
X262000D02*
D03*
X337000Y36276D02*
D03*
X315175Y269326D02*
D03*
X359675Y321774D02*
D03*
X389703Y285274D02*
D03*
X398675Y249326D02*
D03*
X210000Y597551D02*
D03*
X148441Y636884D02*
D03*
X158441D02*
D03*
X291642Y605918D02*
D03*
X238441Y639609D02*
D03*
X248441D02*
D03*
X333445Y638392D02*
D03*
X343943Y638176D02*
D03*
X349800Y489276D02*
D03*
X374675Y396774D02*
D03*
X385500Y400724D02*
D03*
X394500Y401224D02*
D03*
X435500Y467224D02*
D03*
X350300Y574376D02*
D03*
X244969Y728818D02*
D03*
X445675Y285274D02*
D03*
X453500Y316776D02*
D03*
X438500Y427776D02*
D03*
X446000Y467224D02*
D03*
X645824Y257876D02*
D03*
X670300Y292976D02*
D03*
X674395Y257876D02*
D03*
X681300Y322324D02*
D03*
X480941Y643109D02*
D03*
X492641D02*
D03*
X525505Y576518D02*
D03*
X529641Y635309D02*
D03*
X585941Y642609D02*
D03*
X597691D02*
D03*
X653000Y676276D02*
D03*
X474144Y724251D02*
D03*
X528646Y724551D02*
D03*
X622267Y711465D02*
D03*
X590885Y730224D02*
D03*
X611586D02*
D03*
X621937D02*
D03*
X663513Y616323D02*
D03*
X688120Y625772D02*
D03*
X698722D02*
D03*
X529641Y644758D02*
D03*
X653000Y685724D02*
D03*
X636300Y257876D02*
D03*
X675000Y739724D02*
D03*
X652987Y739673D02*
D03*
X642637D02*
D03*
X632287D02*
D03*
X698722Y616323D02*
D03*
X688120D02*
D03*
X601236Y739673D02*
D03*
X590885D02*
D03*
X580535D02*
D03*
Y730224D02*
D03*
X622267Y702016D02*
D03*
X549394Y734000D02*
D03*
X539000Y724551D02*
D03*
Y734000D02*
D03*
X528646D02*
D03*
X484400Y724251D02*
D03*
Y733700D02*
D03*
X474144D02*
D03*
X609441Y642609D02*
D03*
Y652058D02*
D03*
X597691D02*
D03*
X585941D02*
D03*
X544642Y585967D02*
D03*
Y576518D02*
D03*
X535074Y585967D02*
D03*
X525505D02*
D03*
X516000Y586224D02*
D03*
Y576776D02*
D03*
X514541Y635309D02*
D03*
Y644758D02*
D03*
X504341Y643109D02*
D03*
Y652558D02*
D03*
X492641D02*
D03*
X480941D02*
D03*
X681300Y302424D02*
D03*
Y292976D02*
D03*
Y312876D02*
D03*
X674395Y267324D02*
D03*
X672442Y227376D02*
D03*
Y236824D02*
D03*
X670300Y312876D02*
D03*
Y322324D02*
D03*
Y302424D02*
D03*
X672442Y207876D02*
D03*
Y217324D02*
D03*
X664871Y257876D02*
D03*
Y267324D02*
D03*
X661395Y227376D02*
D03*
Y236824D02*
D03*
X655347Y267324D02*
D03*
Y257876D02*
D03*
X650347Y227376D02*
D03*
Y236824D02*
D03*
X645824Y267324D02*
D03*
X639300Y227376D02*
D03*
Y236824D02*
D03*
X636300Y267324D02*
D03*
X661395Y207876D02*
D03*
Y217324D02*
D03*
X650347Y207876D02*
D03*
Y217324D02*
D03*
X639300Y207876D02*
D03*
Y217324D02*
D03*
X446000Y457776D02*
D03*
X438500Y437224D02*
D03*
X456675Y275826D02*
D03*
X445675D02*
D03*
X254700Y728818D02*
D03*
Y738267D02*
D03*
X244969D02*
D03*
X354441Y638176D02*
D03*
Y647624D02*
D03*
X350300Y583824D02*
D03*
X435500Y457776D02*
D03*
X394500Y391776D02*
D03*
X385500Y391276D02*
D03*
X353500Y534324D02*
D03*
Y524876D02*
D03*
X349800Y498724D02*
D03*
X343943Y647624D02*
D03*
X333445Y647841D02*
D03*
X258441Y639609D02*
D03*
Y649057D02*
D03*
X248441D02*
D03*
X238441D02*
D03*
X310780Y615367D02*
D03*
Y605918D02*
D03*
X301211Y615367D02*
D03*
X291642D02*
D03*
X238500Y616276D02*
D03*
Y625724D02*
D03*
X235239Y738267D02*
D03*
X226000Y728776D02*
D03*
Y738224D02*
D03*
X229000Y624724D02*
D03*
Y615276D02*
D03*
X168441Y636884D02*
D03*
Y646333D02*
D03*
X158441D02*
D03*
X148441D02*
D03*
X229000Y606724D02*
D03*
Y597276D02*
D03*
X219731Y607000D02*
D03*
X210000D02*
D03*
X398675Y258774D02*
D03*
X389703Y275826D02*
D03*
X388175Y249326D02*
D03*
X351000Y36276D02*
D03*
Y45724D02*
D03*
X340675Y293826D02*
D03*
X326833D02*
D03*
X337000Y45724D02*
D03*
X281345Y41551D02*
D03*
X262000Y238776D02*
D03*
X252500D02*
D03*
X234000D02*
D03*
X148227Y273973D02*
D03*
X138727Y278973D02*
D03*
X243500Y238776D02*
D03*
X148227Y212973D02*
D03*
X138727Y219973D02*
D03*
X104439Y368352D02*
D03*
X94084D02*
D03*
Y377801D02*
D03*
X84021Y330821D02*
D03*
Y340270D02*
D03*
X83021Y379218D02*
D03*
Y388667D02*
D03*
X105439Y320152D02*
D03*
X95084D02*
D03*
Y329601D02*
D03*
X271000Y41551D02*
D03*
Y51000D02*
D03*
X260655Y41551D02*
D03*
X232676Y41668D02*
D03*
Y51117D02*
D03*
X222332Y41668D02*
D03*
X148227Y146973D02*
D03*
X138227Y156473D02*
D03*
X137227Y100473D02*
D03*
D25*
X592740Y532252D02*
D03*
X585260D02*
D03*
X589000Y523000D02*
D03*
X653300Y200226D02*
D03*
X649560Y190974D02*
D03*
X657040D02*
D03*
D26*
X588724Y513500D02*
D03*
X579276D02*
D03*
X184416Y693033D02*
D03*
X193865D02*
D03*
X42024Y545700D02*
D03*
X32576D02*
D03*
X563949Y586500D02*
D03*
X554500D02*
D03*
X568026Y195750D02*
D03*
X577474D02*
D03*
X549191Y195585D02*
D03*
X558640D02*
D03*
X489026Y147750D02*
D03*
X498474D02*
D03*
X444474Y166250D02*
D03*
X435026D02*
D03*
Y156250D02*
D03*
X444474D02*
D03*
X714039Y717668D02*
D03*
X704590D02*
D03*
Y707550D02*
D03*
X714039D02*
D03*
X637624Y156800D02*
D03*
X628176D02*
D03*
Y166300D02*
D03*
X637624D02*
D03*
X690576Y165800D02*
D03*
X700024D02*
D03*
Y156300D02*
D03*
X690576D02*
D03*
X645175Y481272D02*
D03*
X635726D02*
D03*
X645175Y491472D02*
D03*
X635726D02*
D03*
X587647Y381787D02*
D03*
X597096D02*
D03*
Y371287D02*
D03*
X587647D02*
D03*
X615354Y592187D02*
D03*
X624803D02*
D03*
X615354Y576628D02*
D03*
X624803D02*
D03*
X741500Y510500D02*
D03*
X732051D02*
D03*
X713572Y479449D02*
D03*
X704123D02*
D03*
X713572Y470149D02*
D03*
X704123D02*
D03*
X699776Y359000D02*
D03*
X709224D02*
D03*
X704185Y449379D02*
D03*
X713634D02*
D03*
X704185Y459576D02*
D03*
X713634D02*
D03*
X290546Y172507D02*
D03*
X399399Y296050D02*
D03*
X426399D02*
D03*
X182817Y629933D02*
D03*
X120492Y674875D02*
D03*
X213898Y675375D02*
D03*
X279965Y630533D02*
D03*
X379565Y637433D02*
D03*
X308717Y675375D02*
D03*
X454388Y247475D02*
D03*
X410949Y140500D02*
D03*
X460793Y369550D02*
D03*
X499165Y612933D02*
D03*
X591165Y617033D02*
D03*
X454996Y676375D02*
D03*
X558224D02*
D03*
X655724Y718500D02*
D03*
X655760Y709000D02*
D03*
X705151Y666352D02*
D03*
X151951Y90698D02*
D03*
X148254Y117347D02*
D03*
X148502Y182198D02*
D03*
X147388Y309631D02*
D03*
X147502Y247698D02*
D03*
X290427Y212927D02*
D03*
X290468Y192901D02*
D03*
Y203176D02*
D03*
X290527Y222727D02*
D03*
X290546Y162350D02*
D03*
X380399Y296050D02*
D03*
X389951D02*
D03*
X416951D02*
D03*
X86533Y484369D02*
D03*
X87033Y529716D02*
D03*
Y572696D02*
D03*
X87533Y435062D02*
D03*
Y620188D02*
D03*
X120492Y645968D02*
D03*
X192265Y629933D02*
D03*
X182817Y639633D02*
D03*
X213898Y646468D02*
D03*
X86533Y667393D02*
D03*
X120492Y684510D02*
D03*
X86533Y713487D02*
D03*
X213898Y685010D02*
D03*
X270516Y630533D02*
D03*
Y640833D02*
D03*
X308717Y646468D02*
D03*
X385724Y528900D02*
D03*
X370116Y626933D02*
D03*
Y637433D02*
D03*
X285865Y694733D02*
D03*
X308717Y685010D02*
D03*
X381465Y694933D02*
D03*
X454388Y257829D02*
D03*
X429224Y426500D02*
D03*
X452899Y294550D02*
D03*
Y303550D02*
D03*
X470224Y339000D02*
D03*
X470242Y348222D02*
D03*
Y358886D02*
D03*
Y369550D02*
D03*
X653624Y304500D02*
D03*
Y293000D02*
D03*
X454996Y647469D02*
D03*
X489716Y612933D02*
D03*
X581716Y617033D02*
D03*
X558224Y647469D02*
D03*
X454996Y686010D02*
D03*
X558224D02*
D03*
X528841Y696933D02*
D03*
X691276Y743500D02*
D03*
X705151Y686549D02*
D03*
X157703Y117347D02*
D03*
X157951Y182198D02*
D03*
X156837Y309631D02*
D03*
X156951Y247698D02*
D03*
X410724Y163500D02*
D03*
X32776Y455000D02*
D03*
X32576Y406200D02*
D03*
Y501835D02*
D03*
Y592200D02*
D03*
X192265Y639633D02*
D03*
X120492Y655604D02*
D03*
X32576Y640700D02*
D03*
X32776Y685500D02*
D03*
X213898Y656104D02*
D03*
X279965Y640833D02*
D03*
X308717Y656104D02*
D03*
X379565Y626933D02*
D03*
X454996Y657104D02*
D03*
X558224D02*
D03*
X44612Y319955D02*
D03*
X55006D02*
D03*
X84139D02*
D03*
X43612Y368391D02*
D03*
X54005D02*
D03*
X83139Y368431D02*
D03*
X290546Y182625D02*
D03*
X410724Y152500D02*
D03*
X653624Y316000D02*
D03*
X714600Y686549D02*
D03*
Y666352D02*
D03*
X700724Y743500D02*
D03*
X705151Y676451D02*
D03*
X714600D02*
D03*
X646311Y709000D02*
D03*
X646276Y718500D02*
D03*
X646051Y700000D02*
D03*
X655500D02*
D03*
X519392Y696933D02*
D03*
X567673Y686010D02*
D03*
Y676375D02*
D03*
X464445Y686010D02*
D03*
Y676375D02*
D03*
X558224Y666739D02*
D03*
X567673D02*
D03*
Y657104D02*
D03*
Y647469D02*
D03*
Y637833D02*
D03*
X558224D02*
D03*
X558216Y628233D02*
D03*
X567665D02*
D03*
X454996Y666739D02*
D03*
X464445D02*
D03*
Y657104D02*
D03*
Y647469D02*
D03*
Y637833D02*
D03*
X454996D02*
D03*
X644176Y293000D02*
D03*
Y304500D02*
D03*
Y316000D02*
D03*
X460793Y358886D02*
D03*
Y348222D02*
D03*
X460776Y339000D02*
D03*
X443451Y303550D02*
D03*
Y294550D02*
D03*
X401500Y140500D02*
D03*
X401276Y152500D02*
D03*
X419776Y426500D02*
D03*
X444939Y247475D02*
D03*
Y257829D02*
D03*
X372017Y694933D02*
D03*
X318165Y685010D02*
D03*
X276416Y694733D02*
D03*
X308717Y665739D02*
D03*
X318165D02*
D03*
Y675375D02*
D03*
X409724Y551600D02*
D03*
X400276D02*
D03*
X362476Y560100D02*
D03*
X371924D02*
D03*
X350276Y621500D02*
D03*
X359724D02*
D03*
X409724Y542100D02*
D03*
X400276D02*
D03*
X376276Y528900D02*
D03*
X318165Y656104D02*
D03*
Y646468D02*
D03*
Y636833D02*
D03*
X308717D02*
D03*
X309724Y625500D02*
D03*
X300276D02*
D03*
X223346Y685010D02*
D03*
Y675375D02*
D03*
X213898Y665739D02*
D03*
X223346D02*
D03*
Y656104D02*
D03*
X95982Y702818D02*
D03*
X86533D02*
D03*
X95982Y713487D02*
D03*
X42224Y685500D02*
D03*
X42024Y640700D02*
D03*
X129941Y684510D02*
D03*
X120492Y665239D02*
D03*
X129941D02*
D03*
Y655604D02*
D03*
Y674875D02*
D03*
X95982Y656763D02*
D03*
X86533D02*
D03*
X95982Y667393D02*
D03*
X223346Y646468D02*
D03*
Y636833D02*
D03*
X213898D02*
D03*
X192449Y619500D02*
D03*
X183000D02*
D03*
X129941Y645968D02*
D03*
Y636333D02*
D03*
X120492D02*
D03*
X96982Y620188D02*
D03*
Y435062D02*
D03*
Y424708D02*
D03*
X87533D02*
D03*
X96982Y609598D02*
D03*
X87533D02*
D03*
X96482Y572696D02*
D03*
Y529716D02*
D03*
Y562145D02*
D03*
X87033D02*
D03*
X96482Y519283D02*
D03*
X87033D02*
D03*
X95982Y473936D02*
D03*
X86533D02*
D03*
X95982Y484369D02*
D03*
X42024Y592200D02*
D03*
Y501835D02*
D03*
Y406200D02*
D03*
X42224Y455000D02*
D03*
X401276Y163500D02*
D03*
X370951Y296050D02*
D03*
X281098Y182625D02*
D03*
Y172507D02*
D03*
Y162350D02*
D03*
X281078Y222727D02*
D03*
X281019Y203176D02*
D03*
Y192901D02*
D03*
X280978Y212927D02*
D03*
X73691Y368431D02*
D03*
X63454Y368391D02*
D03*
X34163D02*
D03*
X74691Y319955D02*
D03*
X64454D02*
D03*
X35163D02*
D03*
X142502Y90698D02*
D03*
D27*
X59941Y193012D02*
D03*
Y201870D02*
D03*
X672813Y451543D02*
D03*
Y460401D02*
D03*
X665000Y730071D02*
D03*
Y738929D02*
D03*
X58000Y97571D02*
D03*
Y106429D02*
D03*
D28*
X526500Y678842D02*
D03*
Y659157D02*
D03*
X633000Y679342D02*
D03*
Y659657D02*
D03*
X192000Y674342D02*
D03*
Y654657D02*
D03*
X281500Y676342D02*
D03*
Y656657D02*
D03*
X189041Y113686D02*
D03*
X188372Y176796D02*
D03*
Y241915D02*
D03*
X187978Y301482D02*
D03*
X381500Y657157D02*
D03*
X189041Y94001D02*
D03*
X188372Y157111D02*
D03*
Y222229D02*
D03*
X187978Y281797D02*
D03*
X381500Y676842D02*
D03*
D29*
X52671Y501835D02*
D03*
X61529D02*
D03*
X52571Y685500D02*
D03*
X61429D02*
D03*
X52671Y545700D02*
D03*
X61529D02*
D03*
X52671Y640600D02*
D03*
X61529D02*
D03*
X52671Y592200D02*
D03*
X61529D02*
D03*
X52671Y406200D02*
D03*
X61529D02*
D03*
X35429Y206500D02*
D03*
X26571D02*
D03*
X26071Y146500D02*
D03*
X34929D02*
D03*
X376571Y140500D02*
D03*
X385429D02*
D03*
X376571Y152500D02*
D03*
X385429D02*
D03*
X376571Y163500D02*
D03*
X385429D02*
D03*
X52571Y455000D02*
D03*
X61429D02*
D03*
D30*
X651841Y370770D02*
D03*
X641841D02*
D03*
X711841Y437699D02*
D03*
X671841D02*
D03*
X661841D02*
D03*
X656841D02*
D03*
X651841D02*
D03*
X711841Y370770D02*
D03*
X706841D02*
D03*
X701841D02*
D03*
X696841D02*
D03*
X691841D02*
D03*
X686841D02*
D03*
X681841D02*
D03*
X676841D02*
D03*
X671841D02*
D03*
X666841D02*
D03*
X661841D02*
D03*
X656841D02*
D03*
X646841D02*
D03*
X636841D02*
D03*
X631841D02*
D03*
X626841D02*
D03*
X621841D02*
D03*
Y437699D02*
D03*
X626841D02*
D03*
X631841D02*
D03*
X636841D02*
D03*
X641841D02*
D03*
X646841D02*
D03*
X666841D02*
D03*
X676841D02*
D03*
X681841D02*
D03*
X686841D02*
D03*
X691841D02*
D03*
X696841D02*
D03*
X701841D02*
D03*
X706841D02*
D03*
D32*
X642893Y426835D02*
D03*
Y421835D02*
D03*
Y416835D02*
D03*
Y411835D02*
D03*
Y406835D02*
D03*
Y401835D02*
D03*
Y396835D02*
D03*
Y391835D02*
D03*
Y386835D02*
D03*
Y381835D02*
D03*
D33*
X538010Y166333D02*
D03*
Y184443D02*
D03*
D34*
X553029Y166372D02*
D03*
Y184404D02*
D03*
Y175388D02*
D03*
D35*
X579368D02*
D03*
D36*
X558055Y128500D02*
D03*
X539945D02*
D03*
X540445Y149000D02*
D03*
X558555D02*
D03*
D37*
X465750Y168250D02*
D03*
X475750D02*
D03*
X480750D02*
D03*
Y146990D02*
D03*
X475750D02*
D03*
X470750D02*
D03*
X465750D02*
D03*
X470750Y168250D02*
D03*
D38*
X514342Y71500D02*
D03*
X494657D02*
D03*
X514342Y99000D02*
D03*
X494657D02*
D03*
D39*
X435285Y190337D02*
D03*
X462451D02*
D03*
X387917Y93000D02*
D03*
X415083D02*
D03*
D40*
X376750Y319877D02*
D03*
Y321845D02*
D03*
Y323814D02*
D03*
Y325782D02*
D03*
Y327751D02*
D03*
Y329719D02*
D03*
Y331688D02*
D03*
Y333656D02*
D03*
Y335625D02*
D03*
Y337593D02*
D03*
Y339562D02*
D03*
Y341530D02*
D03*
Y343499D02*
D03*
Y345467D02*
D03*
Y347436D02*
D03*
Y349404D02*
D03*
Y351373D02*
D03*
Y353341D02*
D03*
Y355310D02*
D03*
Y357278D02*
D03*
Y359247D02*
D03*
Y361215D02*
D03*
Y363184D02*
D03*
Y365152D02*
D03*
Y367121D02*
D03*
X437773D02*
D03*
Y365152D02*
D03*
Y363184D02*
D03*
Y361215D02*
D03*
Y359247D02*
D03*
Y357278D02*
D03*
Y355310D02*
D03*
Y353341D02*
D03*
Y351373D02*
D03*
Y349404D02*
D03*
Y347436D02*
D03*
Y345467D02*
D03*
Y343499D02*
D03*
Y341530D02*
D03*
Y339562D02*
D03*
Y337593D02*
D03*
Y335625D02*
D03*
Y333656D02*
D03*
Y331688D02*
D03*
Y329719D02*
D03*
Y327751D02*
D03*
Y325782D02*
D03*
Y323814D02*
D03*
Y321845D02*
D03*
Y319877D02*
D03*
D41*
X383640Y374011D02*
D03*
X385608D02*
D03*
X387577D02*
D03*
X389545D02*
D03*
X391514D02*
D03*
X393482D02*
D03*
X395451D02*
D03*
X397419D02*
D03*
X399388D02*
D03*
X401356D02*
D03*
X403325D02*
D03*
X405293D02*
D03*
X407262D02*
D03*
X409230D02*
D03*
X411199D02*
D03*
X413167D02*
D03*
X415136D02*
D03*
X417104D02*
D03*
X419073D02*
D03*
X421041D02*
D03*
X423010D02*
D03*
X424978D02*
D03*
X426947D02*
D03*
X428915D02*
D03*
X430884D02*
D03*
Y312987D02*
D03*
X428915D02*
D03*
X426947D02*
D03*
X424978D02*
D03*
X423010D02*
D03*
X421041D02*
D03*
X419073D02*
D03*
X417104D02*
D03*
X415136D02*
D03*
X413167D02*
D03*
X411199D02*
D03*
X409230D02*
D03*
X407262D02*
D03*
X405293D02*
D03*
X403325D02*
D03*
X401356D02*
D03*
X399388D02*
D03*
X397419D02*
D03*
X395451D02*
D03*
X393482D02*
D03*
X391514D02*
D03*
X389545D02*
D03*
X387577D02*
D03*
X385608D02*
D03*
X383640D02*
D03*
D42*
X621900Y86026D02*
D03*
X611900D02*
D03*
Y121774D02*
D03*
X621900D02*
D03*
X685100Y85526D02*
D03*
X675100D02*
D03*
Y121274D02*
D03*
X685100D02*
D03*
D43*
X635243Y141000D02*
D03*
X628157D02*
D03*
X631700Y131551D02*
D03*
X697600Y140500D02*
D03*
X690513D02*
D03*
X694057Y131051D02*
D03*
X103143Y338176D02*
D03*
X102143Y387376D02*
D03*
X95057D02*
D03*
X98600Y396824D02*
D03*
X99600Y347624D02*
D03*
X96057Y338176D02*
D03*
D44*
X644016Y579746D02*
D03*
X634567Y576203D02*
D03*
Y583290D02*
D03*
X644016Y594550D02*
D03*
X634567Y591006D02*
D03*
Y598093D02*
D03*
D45*
X586172Y426287D02*
D03*
X591172D02*
D03*
X596172D02*
D03*
X601172D02*
D03*
Y397687D02*
D03*
X596172D02*
D03*
X591172D02*
D03*
X586172D02*
D03*
D46*
X607309Y562191D02*
D03*
Y550380D02*
D03*
X635655D02*
D03*
Y562191D02*
D03*
X663154Y595815D02*
D03*
Y584004D02*
D03*
X691500D02*
D03*
Y595815D02*
D03*
X349584Y248735D02*
D03*
Y260546D02*
D03*
X377931D02*
D03*
Y248735D02*
D03*
X349584Y275192D02*
D03*
X377931D02*
D03*
Y287003D02*
D03*
X349584D02*
D03*
D47*
X616760Y527382D02*
D03*
X624240D02*
D03*
X620500Y537618D02*
D03*
X675954Y627622D02*
D03*
X672214Y617386D02*
D03*
X679695D02*
D03*
D48*
X727376Y575425D02*
D03*
Y573457D02*
D03*
Y571488D02*
D03*
Y569520D02*
D03*
Y567551D02*
D03*
Y565583D02*
D03*
Y563614D02*
D03*
Y561646D02*
D03*
Y559677D02*
D03*
Y557709D02*
D03*
Y555740D02*
D03*
Y553772D02*
D03*
Y551803D02*
D03*
Y549835D02*
D03*
Y547866D02*
D03*
Y545898D02*
D03*
Y543929D02*
D03*
Y541961D02*
D03*
Y539992D02*
D03*
Y538024D02*
D03*
Y536055D02*
D03*
Y534087D02*
D03*
Y532118D02*
D03*
Y530150D02*
D03*
D49*
X734068Y523575D02*
D03*
Y582000D02*
D03*
D50*
X404500Y180358D02*
D03*
Y212642D02*
D03*
D51*
X323675Y283274D02*
D03*
Y263826D02*
D03*
X328675D02*
D03*
X333675D02*
D03*
X338675D02*
D03*
X328675Y283274D02*
D03*
X333675D02*
D03*
X338675D02*
D03*
D52*
X161709Y659735D02*
D03*
X254630Y664510D02*
D03*
X349110D02*
D03*
X497280Y665510D02*
D03*
X601689D02*
D03*
X161709Y665640D02*
D03*
X142417Y667609D02*
D03*
X254630Y670416D02*
D03*
X235339Y672384D02*
D03*
X349110Y670416D02*
D03*
X329819Y672384D02*
D03*
X497280Y671416D02*
D03*
X477988Y673384D02*
D03*
X601689Y671416D02*
D03*
X582398Y673384D02*
D03*
Y677321D02*
D03*
Y675353D02*
D03*
Y671416D02*
D03*
Y669447D02*
D03*
Y667479D02*
D03*
Y665510D02*
D03*
X601689Y667479D02*
D03*
Y669447D02*
D03*
Y673384D02*
D03*
Y675353D02*
D03*
Y677321D02*
D03*
X477988D02*
D03*
Y675353D02*
D03*
Y671416D02*
D03*
Y669447D02*
D03*
Y667479D02*
D03*
Y665510D02*
D03*
X497280Y667479D02*
D03*
Y669447D02*
D03*
Y673384D02*
D03*
Y675353D02*
D03*
Y677321D02*
D03*
X329819Y676321D02*
D03*
Y674353D02*
D03*
Y670416D02*
D03*
Y668447D02*
D03*
Y666479D02*
D03*
Y664510D02*
D03*
X349110Y666479D02*
D03*
Y668447D02*
D03*
Y672384D02*
D03*
Y674353D02*
D03*
Y676321D02*
D03*
X235339D02*
D03*
Y674353D02*
D03*
Y670416D02*
D03*
Y668447D02*
D03*
Y666479D02*
D03*
Y664510D02*
D03*
X254630Y666479D02*
D03*
Y668447D02*
D03*
Y672384D02*
D03*
Y674353D02*
D03*
Y676321D02*
D03*
X142417Y671546D02*
D03*
Y669577D02*
D03*
Y665640D02*
D03*
Y663672D02*
D03*
Y661703D02*
D03*
Y659735D02*
D03*
X161709Y661703D02*
D03*
Y663672D02*
D03*
Y667609D02*
D03*
Y669577D02*
D03*
Y671546D02*
D03*
D53*
X122388Y71698D02*
D03*
Y129906D02*
D03*
X122231Y194237D02*
D03*
X122191Y252269D02*
D03*
X122388Y101698D02*
D03*
Y159906D02*
D03*
X122231Y224237D02*
D03*
X122191Y282269D02*
D03*
Y267268D02*
D03*
Y262268D02*
D03*
Y257269D02*
D03*
Y272269D02*
D03*
Y277269D02*
D03*
X122231Y209237D02*
D03*
Y204237D02*
D03*
Y199237D02*
D03*
Y214237D02*
D03*
Y219237D02*
D03*
X122388Y144906D02*
D03*
Y139906D02*
D03*
Y134906D02*
D03*
Y149906D02*
D03*
Y154906D02*
D03*
Y86698D02*
D03*
Y81698D02*
D03*
Y76698D02*
D03*
Y91698D02*
D03*
Y96698D02*
D03*
D54*
X148609Y103883D02*
D03*
X148727Y169698D02*
D03*
X148723Y235198D02*
D03*
X148333Y296363D02*
D03*
X165617Y103883D02*
D03*
X165735Y169698D02*
D03*
X165731Y235198D02*
D03*
X165341Y296363D02*
D03*
D55*
X269904Y184526D02*
D03*
Y229526D02*
D03*
X232700Y189526D02*
D03*
Y184526D02*
D03*
Y194526D02*
D03*
Y199526D02*
D03*
Y204526D02*
D03*
Y209526D02*
D03*
Y214526D02*
D03*
Y219526D02*
D03*
Y224526D02*
D03*
Y229526D02*
D03*
X269904Y224526D02*
D03*
Y219526D02*
D03*
Y214526D02*
D03*
Y209526D02*
D03*
Y204526D02*
D03*
Y199526D02*
D03*
Y194526D02*
D03*
Y189526D02*
D03*
D56*
X338441Y26819D02*
D03*
X343559D02*
D03*
X341000Y19181D02*
D03*
D58*
X389744Y547100D02*
D03*
X370256Y537100D02*
D03*
Y542100D02*
D03*
Y547100D02*
D03*
Y552100D02*
D03*
X389744D02*
D03*
Y542100D02*
D03*
Y537100D02*
D03*
D59*
X396205Y747764D02*
D03*
X398173D02*
D03*
X400142D02*
D03*
X419827D02*
D03*
X421795D02*
D03*
X423764D02*
D03*
X417858D02*
D03*
X415890D02*
D03*
X413921D02*
D03*
X411953D02*
D03*
X409984D02*
D03*
X408016D02*
D03*
X406047D02*
D03*
X404079D02*
D03*
X402110D02*
D03*
X394236D02*
D03*
D60*
X146158Y675286D02*
D03*
X157968D02*
D03*
X239079Y680061D02*
D03*
X250890D02*
D03*
X333559D02*
D03*
X345370D02*
D03*
X481728Y681061D02*
D03*
X493539D02*
D03*
X586138D02*
D03*
X597949D02*
D03*
X586138Y661770D02*
D03*
X588106D02*
D03*
X590075D02*
D03*
X592043D02*
D03*
X594012D02*
D03*
X595980D02*
D03*
X597949D02*
D03*
X595980Y681061D02*
D03*
X594012D02*
D03*
X592043D02*
D03*
X590075D02*
D03*
X588106D02*
D03*
X481728Y661770D02*
D03*
X483697D02*
D03*
X485665D02*
D03*
X487634D02*
D03*
X489602D02*
D03*
X491571D02*
D03*
X493539D02*
D03*
X491571Y681061D02*
D03*
X489602D02*
D03*
X487634D02*
D03*
X485665D02*
D03*
X483697D02*
D03*
X333559Y660770D02*
D03*
X335528D02*
D03*
X337496D02*
D03*
X339465D02*
D03*
X341433D02*
D03*
X343402D02*
D03*
X345370D02*
D03*
X343402Y680061D02*
D03*
X341433D02*
D03*
X339465D02*
D03*
X337496D02*
D03*
X335528D02*
D03*
X239079Y660770D02*
D03*
X241047D02*
D03*
X243016D02*
D03*
X244984D02*
D03*
X246953D02*
D03*
X248921D02*
D03*
X250890D02*
D03*
X248921Y680061D02*
D03*
X246953D02*
D03*
X244984D02*
D03*
X243016D02*
D03*
X241047D02*
D03*
X146158Y655995D02*
D03*
X148126D02*
D03*
X150094D02*
D03*
X152063D02*
D03*
X154032D02*
D03*
X156000D02*
D03*
X157968D02*
D03*
X156000Y675286D02*
D03*
X154032D02*
D03*
X152063D02*
D03*
X150094D02*
D03*
X148126D02*
D03*
D61*
X703165Y255000D02*
D03*
X683835D02*
D03*
D62*
X432819Y758394D02*
D03*
X385181D02*
D03*
D63*
X423000Y458000D02*
D03*
Y438000D02*
D03*
D64*
X38126Y331000D02*
D03*
Y341000D02*
D03*
X73874D02*
D03*
Y331000D02*
D03*
X35383Y379177D02*
D03*
Y389177D02*
D03*
X71131D02*
D03*
Y379177D02*
D03*
D136*
X44801Y707818D02*
D03*
Y614717D02*
D03*
Y523928D02*
D03*
Y567342D02*
D03*
Y429787D02*
D03*
Y662787D02*
D03*
Y478977D02*
D03*
D137*
X73147Y698897D02*
D03*
Y716739D02*
D03*
Y605795D02*
D03*
Y623638D02*
D03*
Y515007D02*
D03*
Y532850D02*
D03*
Y558421D02*
D03*
Y576263D02*
D03*
Y420865D02*
D03*
Y438708D02*
D03*
Y487898D02*
D03*
Y671708D02*
D03*
Y653865D02*
D03*
Y470055D02*
D03*
D138*
X682313Y408172D02*
D03*
D139*
X473250Y157620D02*
D03*
D140*
X301157Y50500D02*
D03*
X319000D02*
D03*
D141*
X152063Y665640D02*
D03*
X244984Y670416D02*
D03*
X339465D02*
D03*
X487634Y671416D02*
D03*
X592043D02*
D03*
D142*
X366000Y490100D02*
D03*
Y576404D02*
D03*
Y596404D02*
D03*
Y510100D02*
D03*
D143*
X385992Y448000D02*
D03*
D144*
X252500Y406800D02*
D03*
X234000Y388500D02*
D03*
X213900Y407800D02*
D03*
D145*
X404386Y586364D02*
D03*
Y500060D02*
D03*
D146*
X310079Y22153D02*
D03*
D147*
X82979Y267268D02*
D03*
X83018Y209237D02*
D03*
X83176Y144906D02*
D03*
Y86698D02*
D03*
D158*
X375626Y41378D02*
D03*
X383500Y17756D02*
D03*
X431531D02*
D03*
Y65000D02*
D03*
X383500D02*
D03*
X370611Y26430D02*
D03*
Y55958D02*
D03*
X449351Y26430D02*
D03*
Y55958D02*
D03*
X469036Y26430D02*
D03*
Y55958D02*
D03*
X561500Y107685D02*
D03*
Y68315D02*
D03*
Y50598D02*
D03*
D159*
X14000Y420079D02*
D03*
Y341000D02*
D03*
X14423Y717661D02*
D03*
X734000Y175921D02*
D03*
X734176Y708180D02*
D03*
X16500Y41658D02*
D03*
X14000Y385000D02*
D03*
X736500Y477421D02*
D03*
X16000Y73579D02*
D03*
X14000Y474079D02*
D03*
X14423Y657944D02*
D03*
X14923Y562381D02*
D03*
Y518968D02*
D03*
X15423Y609834D02*
D03*
X437000Y580579D02*
D03*
X440000Y503600D02*
D03*
X734000Y614157D02*
D03*
X734738Y666274D02*
D03*
D160*
X14000Y429921D02*
D03*
Y321315D02*
D03*
Y331157D02*
D03*
X14423Y697976D02*
D03*
Y707818D02*
D03*
X734000Y166079D02*
D03*
X355421Y755000D02*
D03*
X734176Y727865D02*
D03*
Y718022D02*
D03*
X736500Y467579D02*
D03*
X16000Y83421D02*
D03*
X64657Y14000D02*
D03*
X119500Y13933D02*
D03*
X177000Y14933D02*
D03*
X222279Y14900D02*
D03*
X265879Y15000D02*
D03*
X62657Y754000D02*
D03*
X126500D02*
D03*
X184500D02*
D03*
X244900D02*
D03*
X313421Y754500D02*
D03*
X484158Y756000D02*
D03*
X538500Y756067D02*
D03*
X734000Y624000D02*
D03*
X734738Y676116D02*
D03*
X14000Y365315D02*
D03*
X734738Y685959D02*
D03*
X734000Y633843D02*
D03*
Y643685D02*
D03*
X528657Y756067D02*
D03*
X474315Y756000D02*
D03*
X596650Y709172D02*
D03*
X586807D02*
D03*
X576965D02*
D03*
X493067D02*
D03*
X483224D02*
D03*
X473382D02*
D03*
X440000Y493757D02*
D03*
X437000Y590421D02*
D03*
X344661Y708172D02*
D03*
X334819D02*
D03*
X324976D02*
D03*
X235057Y754000D02*
D03*
X249669Y708172D02*
D03*
X239827D02*
D03*
X229984D02*
D03*
X174657Y754000D02*
D03*
X158047Y708172D02*
D03*
X148205D02*
D03*
X138362D02*
D03*
X116657Y754000D02*
D03*
X106815D02*
D03*
X52815D02*
D03*
X15423Y619676D02*
D03*
X14923Y528810D02*
D03*
Y572224D02*
D03*
X14423Y667787D02*
D03*
X186843Y14933D02*
D03*
X14000Y375157D02*
D03*
Y483921D02*
D03*
X129342Y13933D02*
D03*
X74500Y14000D02*
D03*
X16500Y51500D02*
D03*
D161*
X629500Y38500D02*
D03*
X513000Y45500D02*
D03*
X730500Y38500D02*
D03*
X680000D02*
D03*
D162*
X609500D02*
D03*
X44000Y295000D02*
D03*
Y186500D02*
D03*
X493000Y45500D02*
D03*
X710500Y38500D02*
D03*
X660000D02*
D03*
X44500Y245500D02*
D03*
X44000Y128000D02*
D03*
D163*
Y275000D02*
D03*
Y166500D02*
D03*
X44500Y225500D02*
D03*
X44000Y108000D02*
D03*
D164*
X345579Y755000D02*
D03*
X303579Y754500D02*
D03*
X54815Y14000D02*
D03*
X109658Y13933D02*
D03*
X167157Y14933D02*
D03*
X72500Y754000D02*
D03*
X136343D02*
D03*
X194343D02*
D03*
X254743D02*
D03*
X494000Y756000D02*
D03*
X548343Y756067D02*
D03*
X606492Y709172D02*
D03*
X502910D02*
D03*
X354504Y708172D02*
D03*
X259512D02*
D03*
X167890D02*
D03*
X275721Y15000D02*
D03*
X232121Y14900D02*
D03*
D165*
X704500Y56500D02*
D03*
Y71500D02*
D03*
Y101500D02*
D03*
Y116500D02*
D03*
X642000Y57400D02*
D03*
Y72400D02*
D03*
Y102400D02*
D03*
Y117400D02*
D03*
D166*
X734000Y90500D02*
D03*
X730000Y752500D02*
D03*
X15400Y754800D02*
D03*
X16000Y16000D02*
D03*
D167*
X581373Y755528D02*
D03*
X300000Y356000D02*
D03*
X715500Y255000D02*
D03*
X429073Y256137D02*
D03*
D168*
X591216Y755528D02*
D03*
X601058D02*
D03*
X610901D02*
D03*
X620743D02*
D03*
X630586D02*
D03*
X640428D02*
D03*
X650271D02*
D03*
X660113D02*
D03*
X669956D02*
D03*
X429073Y246137D02*
D03*
X260000Y346000D02*
D03*
X270000D02*
D03*
X280000D02*
D03*
X163800Y89200D02*
D03*
X164593Y218646D02*
D03*
X163227Y279198D02*
D03*
X165026Y153410D02*
D03*
X419073Y246137D02*
D03*
X409073D02*
D03*
X260000Y356000D02*
D03*
X270000D02*
D03*
X280000D02*
D03*
X290000D02*
D03*
Y346000D02*
D03*
X300000D02*
D03*
X725500Y255000D02*
D03*
X735500D02*
D03*
X409073Y256137D02*
D03*
X419073D02*
D03*
X165026Y143410D02*
D03*
X163227Y269198D02*
D03*
X164593Y208646D02*
D03*
X163800Y79200D02*
D03*
D169*
Y69200D02*
D03*
X164593Y198646D02*
D03*
X163227Y259198D02*
D03*
X165026Y133410D02*
D03*
D170*
X701930Y239722D02*
D03*
Y192321D02*
D03*
X703500Y277500D02*
D03*
Y329232D02*
D03*
D171*
X691300Y220942D02*
D03*
X683426Y211100D02*
D03*
X691300D02*
D03*
D172*
X692831Y317146D02*
D03*
Y307303D02*
D03*
Y299429D02*
D03*
D173*
Y289587D02*
D03*
D174*
X683426Y220942D02*
D03*
D175*
X427734Y280467D02*
D03*
X408522D02*
D03*
M02*
